<svg xmlns="http://www.w3.org/2000/svg" xmlns:xlink="http://www.w3.org/1999/xlink" version="1.1" x="0px" y="0px" viewBox="0 0 100 100" enable-background="new 0 0 100 100" xml:space="preserve"><path d="M90.813,16.062H35.039c-0.562-3.752-2.354-6.499-4.482-6.499c-2.127,0-3.919,2.747-4.482,6.499H8.64  c-1.381,0-2.5,1.119-2.5,2.5s1.119,2.5,2.5,2.5h17.435c0.562,3.752,2.354,6.498,4.482,6.498c2.128,0,3.92-2.746,4.482-6.498h55.774  c1.381,0,2.5-1.119,2.5-2.5S92.194,16.062,90.813,16.062z"></path><path d="M90.813,45.773H79.945c-0.562-3.752-2.354-6.499-4.482-6.499s-3.919,2.747-4.481,6.499H8.64c-1.381,0-2.5,1.119-2.5,2.5  s1.119,2.5,2.5,2.5h62.342c0.562,3.752,2.354,6.498,4.481,6.498s3.92-2.746,4.482-6.498h10.868c1.381,0,2.5-1.119,2.5-2.5  S92.194,45.773,90.813,45.773z"></path><path d="M90.813,75.484H48.197c-0.562-3.751-2.354-6.498-4.482-6.498c-2.127,0-3.919,2.747-4.482,6.498H8.64  c-1.381,0-2.5,1.119-2.5,2.5s1.119,2.5,2.5,2.5h30.593c0.562,3.752,2.354,6.499,4.482,6.499c2.128,0,3.92-2.747,4.482-6.499h42.616  c1.381,0,2.5-1.119,2.5-2.5S92.194,75.484,90.813,75.484z"></path></svg>