<?xml version="1.0" encoding="utf-8"?>
<!-- Generator: Adobe Illustrator 14.0.0, SVG Export Plug-In . SVG Version: 6.00 Build 43363)  -->
<!DOCTYPE svg PUBLIC "-//W3C//DTD SVG 1.1//EN" "http://www.w3.org/Graphics/SVG/1.1/DTD/svg11.dtd">
<svg version="1.1" id="Layer_1" xmlns="http://www.w3.org/2000/svg" xmlns:xlink="http://www.w3.org/1999/xlink" x="0px" y="0px"
	 width="100px" height="100px" viewBox="0 0 100 100" enable-background="new 0 0 100 100" xml:space="preserve">
<path d="M42.871,69.658c0,4.904-3.189,8.881-7.124,8.881l0,0c-3.934,0.002-7.124-3.977-7.124-8.881V24.342
	c0-4.905,3.189-8.881,7.125-8.881l0,0c3.933,0,7.124,3.977,7.124,8.882L42.871,69.658L42.871,69.658z"/>
<path d="M69.995,69.658c0,4.904-3.188,8.881-7.124,8.881l0,0c-3.934,0.002-7.123-3.977-7.123-8.881V24.342
	c0-4.905,3.189-8.881,7.125-8.881l0,0c3.934,0,7.123,3.977,7.123,8.882L69.995,69.658L69.995,69.658z"/>
</svg>
