<svg xmlns="http://www.w3.org/2000/svg" xmlns:xlink="http://www.w3.org/1999/xlink" version="1.1" id="Layer_1" x="0px" y="0px" viewBox="0 0 100 100" enable-background="new 0 0 100 100" xml:space="preserve" height="100px" width="100px">
<path d="M78.7,66.8H52.2c0.2-0.1,0.3-0.2,0.4-0.3l13.2-13.7c1-1,1-2,0.8-2.6c-0.1-0.4-0.6-1.3-1.9-1.5c-0.1,0-0.2,0-0.3,0h-5.6V18.6  c0-1-0.8-1.8-1.8-1.8H43.3c-1,0-1.8,0.8-1.8,1.8v30.1H36c-0.1,0-0.1,0-0.2,0c-1.5,0.2-2,1.1-2.1,1.5c-0.2,0.5-0.3,1.5,0.7,2.6  l13.1,13.6c0.1,0.1,0.3,0.3,0.4,0.4H21.5c-2.6,0-4.7,2.1-4.7,4.7v8.8c0,2.6,2.1,4.7,4.7,4.7h57.3c2.6,0,4.7-2.1,4.7-4.7v-8.8  C83.5,69,81.3,66.8,78.7,66.8z M39.2,52.5h4.1c1,0,1.8-0.8,1.8-1.8V20.5H55v30.1c0,1,0.8,1.8,1.8,1.8h4.1L50.1,63.7L39.2,52.5z   M79.8,80.4c0,0.6-0.5,1-1,1H21.5c-0.6,0-1-0.5-1-1v-8.8c0-0.6,0.5-1,1-1h57.3c0.6,0,1,0.5,1,1V80.4z"/>
</svg>