<?xml version="1.0" encoding="utf-8"?>
<!-- Generator: Adobe Illustrator 14.0.0, SVG Export Plug-In . SVG Version: 6.00 Build 43363)  -->
<!DOCTYPE svg PUBLIC "-//W3C//DTD SVG 1.1//EN" "http://www.w3.org/Graphics/SVG/1.1/DTD/svg11.dtd">
<svg version="1.1" id="Layer_1" xmlns="http://www.w3.org/2000/svg" xmlns:xlink="http://www.w3.org/1999/xlink" x="0px" y="0px"
	 width="100px" height="100px" viewBox="0 0 100 100" enable-background="new 0 0 100 100" xml:space="preserve">
<g id="XMLID_1_">
	<g>
		<path d="M24.78,65.93v8.04h-0.92c-3.61,0-6.54-2.938-6.54-6.54v-1.5H24.78z"/>
		<rect x="26.71" y="65.93" width="7.7" height="8.04"/>
		<rect x="65.26" y="55.96" width="7.7" height="8.03"/>
		<rect x="45.99" y="55.96" width="7.699" height="8.03"/>
		<rect x="55.62" y="55.96" width="7.7" height="8.03"/>
		<rect x="55.62" y="45.98" width="7.7" height="8.04"/>
		<rect x="45.99" y="45.98" width="7.699" height="8.04"/>
		<rect x="36.35" y="45.98" width="7.7" height="8.04"/>
		<rect x="26.71" y="26.04" width="7.7" height="8.03"/>
		<rect x="36.35" y="26.04" width="7.7" height="8.03"/>
		<rect x="74.9" y="36.01" width="7.779" height="8.04"/>
		<rect x="65.26" y="36.01" width="7.7" height="8.04"/>
		<rect x="55.62" y="36.01" width="7.7" height="8.04"/>
		<path d="M74.9,65.93v8.04h1.238c3.61,0,6.541-2.938,6.541-6.54v-1.5H74.9z M82.68,34.07v-1.5c0-3.6-2.93-6.53-6.539-6.53H74.9
			v8.03H82.68z M82.68,63.99v-8.03H74.9v8.03H82.68z M82.68,54.02v-8.04H74.9v8.04H82.68z M82.68,44.05v-8.04H74.9v8.04H82.68z
			 M24.78,34.07v-8.03h-0.92c-3.61,0-6.54,2.93-6.54,6.53v1.5H24.78z M24.78,44.05v-8.04h-7.46v8.04H24.78z M24.78,54.02v-8.04
			h-7.46v8.04H24.78z M24.78,63.99v-8.03h-7.46v8.03H24.78z M24.78,73.97v-8.04h-7.46v1.5c0,3.602,2.93,6.54,6.54,6.54H24.78z
			 M34.41,34.07v-8.03h-7.7v8.03H34.41z M34.41,44.05v-8.04h-7.7v8.04H34.41z M34.41,54.02v-8.04h-7.7v8.04H34.41z M34.41,63.99
			v-8.03h-7.7v8.03H34.41z M34.41,73.97v-8.04h-7.7v8.04H34.41z M44.05,34.07v-8.03h-7.7v8.03H44.05z M44.05,44.05v-8.04h-7.7v8.04
			H44.05z M44.05,54.02v-8.04h-7.7v8.04H44.05z M44.05,63.99v-8.03h-7.7v8.03H44.05z M44.05,73.97v-8.04h-7.7v8.04H44.05z
			 M53.689,34.07v-8.03H45.99v8.03H53.689z M53.689,44.05v-8.04H45.99v8.04H53.689z M53.689,54.02v-8.04H45.99v8.04H53.689z
			 M53.689,63.99v-8.03H45.99v8.03H53.689z M53.689,73.97v-8.04H45.99v8.04H53.689z M63.32,34.07v-8.03h-7.7v8.03H63.32z
			 M63.32,44.05v-8.04h-7.7v8.04H63.32z M63.32,54.02v-8.04h-7.7v8.04H63.32z M63.32,63.99v-8.03h-7.7v8.03H63.32z M63.32,73.97
			v-8.04h-7.7v8.04H63.32z M72.96,65.93h-7.7v8.04h7.7V65.93z M65.26,55.96v8.03h7.7v-8.03H65.26z M65.26,36.01v8.04h7.7v-8.04
			H65.26z M72.96,45.98h-7.7v8.04h7.7V45.98z M72.96,34.07v-8.03h-7.7v8.03H72.96z M87.04,32.57v34.86
			c0,6.012-4.89,10.891-10.899,10.891H23.86c-6.01,0-10.9-4.879-10.9-10.891V32.57c0-6.01,4.89-10.89,10.9-10.89h52.281
			C82.15,21.68,87.04,26.56,87.04,32.57z"/>
	</g>
</g>
</svg>
