<?xml version="1.0" encoding="utf-8"?>
<!-- Generator: Adobe Illustrator 14.0.0, SVG Export Plug-In . SVG Version: 6.00 Build 43363)  -->
<!DOCTYPE svg PUBLIC "-//W3C//DTD SVG 1.1//EN" "http://www.w3.org/Graphics/SVG/1.1/DTD/svg11.dtd">
<svg version="1.1" id="Layer_1" xmlns="http://www.w3.org/2000/svg" xmlns:xlink="http://www.w3.org/1999/xlink" x="0px" y="0px"
	 width="16px" height="16px" viewBox="0 0 16 16" enable-background="new 0 0 16 16" xml:space="preserve">
<path d="M7.096,2.585c-2.65,0-4.815,2.165-4.815,4.815c0,2.651,2.165,4.815,4.815,4.815c0.924,0,1.789-0.264,2.523-0.718
	c0.008,0.008,0.016,0.016,0.023,0.022l2.592,2.594c0.426,0.443,1.13,0.46,1.574,0.035c0.445-0.424,0.461-1.129,0.037-1.574
	c-0.012-0.012-0.024-0.023-0.037-0.035l-2.592-2.594c-0.008-0.008-0.016-0.015-0.023-0.022c0.455-0.735,0.718-1.599,0.718-2.523
	C11.911,4.75,9.746,2.585,7.096,2.585z M7.096,4.067c1.849,0,3.333,1.483,3.333,3.333c0,1.85-1.484,3.333-3.333,3.333
	c-1.85,0-3.333-1.483-3.333-3.333C3.763,5.55,5.247,4.067,7.096,4.067z M6.726,5.548V7.03H5.245v0.741h1.481v1.481h0.741V7.771
	h1.481V7.03H7.467V5.548H6.726z"/>
</svg>
