<?xml version="1.0" encoding="utf-8"?>
<!-- Generator: Adobe Illustrator 14.0.0, SVG Export Plug-In . SVG Version: 6.00 Build 43363)  -->
<!DOCTYPE svg PUBLIC "-//W3C//DTD SVG 1.1//EN" "http://www.w3.org/Graphics/SVG/1.1/DTD/svg11.dtd">
<svg version="1.1" id="Layer_1" xmlns="http://www.w3.org/2000/svg" xmlns:xlink="http://www.w3.org/1999/xlink" x="0px" y="0px"
	 width="100px" height="100px" viewBox="0 0 100 100" enable-background="new 0 0 100 100" xml:space="preserve">
<g id="Your_Icon">
	<polygon points="23.255,53.565 23.262,66.355 34.051,63.549 	"/>
	<path d="M59.982,19.725l0.003,4.238l-5.058-1.681l0.002,4.236l-5.059-1.681l0.002,4.238l-5.058-1.681l0.002,4.237l-5.058-1.682
		l0.002,4.237l-5.058-1.682l0.002,4.238l-5.059-1.682l0.002,4.238l-5.059-1.681l0.002,4.237l-5.058-1.681l0.003,4.238l-5.058-1.682
		l0.015,28.63l28.333,9.418l-0.002-4.238l5.058,1.682l-0.001-4.238l5.057,1.682l-0.003-4.236l5.058,1.681l-0.002-4.238l5.061,1.682
		l-0.003-4.237l5.058,1.682l-0.003-4.236l5.058,1.683L73.163,61.2l5.06,1.683l-0.004-4.236l5.059,1.681l-0.002-4.237l5.059,1.682
		l-0.018-28.63L59.982,19.725z M17.265,69.481L17.251,46.45l22.793,7.577l0.015,23.031L17.265,69.481z M42.826,73.74l-0.011-21.592
		l-20.507-6.816l-0.001-1.437L45.1,51.471l0.014,23.032L42.826,73.74z M47.883,71.185L47.87,49.59l-20.507-6.815l-0.001-1.437
		l22.794,7.576l0.015,23.031L47.883,71.185z M52.938,68.628l-0.014-21.592L32.418,40.22l0-1.436l22.795,7.575l0.014,23.032
		L52.938,68.628z M57.993,66.07l-0.011-21.59l-20.507-6.815l-0.001-1.44L60.27,43.8l0.014,23.031L57.993,66.07z M63.05,63.516
		l-0.013-21.595L42.53,35.106l-0.001-1.436l22.793,7.576l0.016,23.031L63.05,63.516z M68.105,60.961l-0.013-21.594l-20.508-6.816
		l0-1.437l22.793,7.574l0.016,23.033L68.105,60.961z M73.162,58.402l-0.014-21.591l-20.508-6.815v-1.44l22.794,7.577l0.015,23.03
		L73.162,58.402z M78.218,55.848l-0.015-21.594l-20.504-6.814l-0.002-1.438l22.794,7.576l0.015,23.032L78.218,55.848z
		 M83.273,53.293l-0.012-21.594l-20.508-6.816v-1.437l22.795,7.576l0.013,23.031L83.273,53.293z"/>
</g>
</svg>
