<?xml version="1.0" encoding="utf-8"?>
<!-- Generator: Adobe Illustrator 14.0.0, SVG Export Plug-In . SVG Version: 6.00 Build 43363)  -->
<!DOCTYPE svg PUBLIC "-//W3C//DTD SVG 1.1//EN" "http://www.w3.org/Graphics/SVG/1.1/DTD/svg11.dtd">
<svg version="1.1" id="Your_Icon" xmlns="http://www.w3.org/2000/svg" xmlns:xlink="http://www.w3.org/1999/xlink" x="0px" y="0px"
	 width="100px" height="100px" viewBox="0 0 100 100" enable-background="new 0 0 100 100" xml:space="preserve">
<g>
	<path d="M74.41,86.54H24.352c-6.574,0-11.922-5.349-11.922-11.923V24.56c0-6.574,5.348-11.922,11.922-11.922H74.41
		c6.574,0,11.924,5.348,11.924,11.922v50.057C86.334,81.191,80.984,86.54,74.41,86.54z M24.352,19.514
		c-2.783,0-5.047,2.264-5.047,5.046v50.057c0,2.783,2.264,5.047,5.047,5.047H74.41c2.783,0,5.048-2.264,5.048-5.047V24.56
		c0-2.783-2.267-5.046-5.048-5.046H24.352z"/>
</g>
<polygon points="71.992,63.133 64.546,70.581 50,56.037 35.457,70.581 28.008,63.133 42.553,48.587 28.008,34.045 35.457,26.596 
	50,41.14 64.546,26.596 71.992,34.045 57.45,48.587 "/>
</svg>
