<?xml version="1.0" encoding="utf-8"?>
<!-- Generator: Adobe Illustrator 14.0.0, SVG Export Plug-In . SVG Version: 6.00 Build 43363)  -->
<!DOCTYPE svg PUBLIC "-//W3C//DTD SVG 1.1//EN" "http://www.w3.org/Graphics/SVG/1.1/DTD/svg11.dtd">
<svg version="1.1" id="Layer_2" xmlns="http://www.w3.org/2000/svg" xmlns:xlink="http://www.w3.org/1999/xlink" x="0px" y="0px"
	 width="100px" height="100px" viewBox="0 0 100 100" enable-background="new 0 0 100 100" xml:space="preserve">
<path d="M86.251,9.277h-14.38V8.446H29.945v0.831H13.349c-1.792,0-3.247,1.455-3.247,3.247v77.283c0,1.791,1.455,3.248,3.247,3.248
	h74.468c1.792,0,3.247-1.457,3.247-3.248V14.581L86.251,9.277z M55.061,11.801h10.824v20.963H55.061V11.801z M19.143,10.251h10.802
	v22.622c0,1.792,1.455,3.247,3.247,3.247h35.434c1.791,0,3.247-1.455,3.247-3.247V10.251h1.657v27.818H19.143V10.251z M16.67,87.175
	h-4.043v-3.609h4.043V87.175z M82.025,91.323H19.143V44.022h62.883V91.323z M88.07,87.175h-4.039v-3.609h4.039V87.175z"/>
<polygon points="58.453,48.631 43.789,48.631 57.856,72.486 72.52,72.486 "/>
<polygon points="72.52,74.16 44.571,74.16 37.314,86.665 65.263,86.665 "/>
<polygon points="49.812,62.151 42.369,49.609 28.271,73.491 35.713,86.032 "/>
</svg>
