<?xml version="1.0" encoding="utf-8"?>
<!-- Generator: Adobe Illustrator 14.0.0, SVG Export Plug-In . SVG Version: 6.00 Build 43363)  -->
<!DOCTYPE svg PUBLIC "-//W3C//DTD SVG 1.1//EN" "http://www.w3.org/Graphics/SVG/1.1/DTD/svg11.dtd">
<svg version="1.1" id="Your_Icon" xmlns="http://www.w3.org/2000/svg" xmlns:xlink="http://www.w3.org/1999/xlink" x="0px" y="0px"
	 width="100px" height="100px" viewBox="0 0 100 100" enable-background="new 0 0 100 100" xml:space="preserve">
<g>
	<polygon fill="none" points="56.111,79.721 59.39,79.721 57.753,76.105 	"/>
	<path d="M22.219,82.948h-0.24c-0.648,0-1.237,0.229-1.704,0.651c-0.462,0.425-0.705,0.963-0.705,1.687
		c0,0.595,0.243,1.134,0.709,1.563c0.463,0.419,1.054,0.643,1.7,0.643h0.24c0.652,0,1.24-0.224,1.699-0.643
		c0.466-0.43,0.71-0.965,0.71-1.698c0-0.592-0.244-1.132-0.704-1.552C23.459,83.173,22.871,82.948,22.219,82.948z"/>
	<path d="M49.842,71.813c0-0.322-0.105-0.806-0.613-1.257c-0.28-0.24-0.758-0.521-1.505-0.521c-1.025,0-1.786,0.543-2.101,1.485
		l-3.011,9.064l-3.027-9.019c-0.15-0.451-0.449-0.836-0.866-1.114c-0.827-0.548-1.973-0.552-2.812,0
		c-0.419,0.279-0.72,0.666-0.858,1.109l-3.033,9.023L29,71.516c-0.313-0.937-1.099-1.477-2.148-1.477
		c-0.562,0-1.065,0.182-1.459,0.525c-0.508,0.446-0.615,0.93-0.615,1.251c0,0.287,0.04,0.558,0.124,0.84l4.712,13.243
		c0.402,1.039,1.286,1.638,2.421,1.638c0.559,0,1.071-0.159,1.518-0.468c0.444-0.311,0.752-0.715,0.916-1.201l2.846-8.252
		l2.841,8.235c0.16,0.495,0.471,0.902,0.916,1.218c0.455,0.309,0.965,0.468,1.519,0.468c1.132,0,2.013-0.599,2.433-1.658
		l4.713-13.265C49.806,72.363,49.842,72.096,49.842,71.813z"/>
	<path d="M60.236,71.521c-0.459-0.957-1.297-1.485-2.365-1.485h-0.237c-1.07,0-1.917,0.528-2.374,1.495l-6.124,13.23
		c-0.125,0.289-0.201,0.605-0.201,0.933c0,0.308,0.098,0.774,0.573,1.243c0.867,0.86,2.921,0.824,3.595-0.616l1.282-2.825h6.736
		l1.286,2.833c0.36,0.769,1.05,1.207,1.898,1.207c0.896,0,1.416-0.328,1.691-0.603c0.47-0.468,0.57-0.936,0.57-1.243
		c0-0.323-0.066-0.637-0.203-0.939L60.236,71.521z M56.111,79.721l1.642-3.62l1.637,3.62H56.111z"/>
	<path d="M79.93,70.036c-0.842,0-1.538,0.467-1.912,1.291l-4.654,10.612l-4.647-10.626c-0.378-0.81-1.138-1.277-2.09-1.277
		c-0.589,0-1.111,0.207-1.505,0.603c-0.376,0.369-0.576,0.809-0.576,1.273c0,0.362,0.052,0.638,0.16,0.855l5.939,13.188
		c0.688,1.378,1.831,1.581,2.454,1.581h0.529c0.62,0,1.773-0.203,2.475-1.614l5.91-13.127c0.117-0.233,0.166-0.513,0.166-0.883
		c0-0.465-0.195-0.904-0.573-1.273C81.335,70.365,80.821,70.036,79.93,70.036z"/>
</g>
<path d="M66.6,50.2c-0.1-0.4-0.6-1.3-1.899-1.5h-5.9V18.6c0-1-0.8-1.8-1.8-1.8H43.3c-1,0-1.8,0.8-1.8,1.8v30.1H36
	c-0.1,0-0.1,0-0.2,0c-1.5,0.2-2,1.1-2.1,1.5c-0.2,0.5-0.3,1.5,0.7,2.6L47.5,66.4c0.1,0.1,0.3,0.3,0.4,0.399h-0.067
	c0.243,0.189,0.446,0.413,0.636,0.647c0.5,0.283,0.919,0.652,1.261,1.08c0.144,0.117,0.283,0.24,0.41,0.373
	c0.143-0.075,0.285-0.151,0.439-0.213c0.282-0.429,0.608-0.828,1.035-1.139c0.028-0.029,0.052-0.063,0.082-0.092
	c0.179-0.237,0.382-0.458,0.608-0.657H52.2c0.158-0.079,0.25-0.158,0.332-0.237c0.067-0.071,0.136-0.143,0.209-0.209L65.8,52.8
	C66.8,51.8,66.8,50.8,66.6,50.2z M50.1,63.7L39.2,52.5h4.1c1,0,1.8-0.8,1.8-1.8V20.5H55v30.1c0,1,0.8,1.801,1.8,1.801H60.9
	L50.1,63.7z"/>
</svg>
