<?xml version="1.0" encoding="utf-8"?>
<!-- Generator: Adobe Illustrator 14.0.0, SVG Export Plug-In . SVG Version: 6.00 Build 43363)  -->
<!DOCTYPE svg PUBLIC "-//W3C//DTD SVG 1.1//EN" "http://www.w3.org/Graphics/SVG/1.1/DTD/svg11.dtd">
<svg version="1.1" id="Your_Icon" xmlns="http://www.w3.org/2000/svg" xmlns:xlink="http://www.w3.org/1999/xlink" x="0px" y="0px"
	 width="100px" height="100px" viewBox="0 0 100 100" enable-background="new 0 0 100 100" xml:space="preserve">
<path d="M66.6,50.2c-0.1-0.4-0.6-1.3-1.898-1.5h-5.9V18.6c0-1-0.8-1.8-1.8-1.8H43.3c-1,0-1.8,0.8-1.8,1.8v30.1H36
	c-0.1,0-0.1,0-0.2,0c-1.5,0.2-2,1.1-2.1,1.5c-0.2,0.5-0.3,1.5,0.7,2.6L47.5,66.4c0.1,0.1,0.3,0.3,0.4,0.398h-0.067
	c0.243,0.189,0.446,0.413,0.636,0.646c0.5,0.283,0.919,0.652,1.261,1.08c0.144,0.117,0.283,0.24,0.41,0.373
	c0.143-0.074,0.285-0.15,0.439-0.213c0.282-0.429,0.608-0.828,1.034-1.139c0.029-0.029,0.053-0.062,0.082-0.092
	c0.18-0.237,0.383-0.458,0.609-0.657H52.2c0.157-0.079,0.25-0.157,0.332-0.237c0.067-0.07,0.136-0.143,0.209-0.209L65.8,52.8
	C66.8,51.8,66.8,50.8,66.6,50.2z M50.1,63.7L39.2,52.5h4.1c1,0,1.8-0.8,1.8-1.8V20.5H55v30.1c0,1,0.8,1.801,1.8,1.801H60.9
	L50.1,63.7z"/>
<text transform="matrix(1.1904 0 0 1 14.3091 86.6348)" stroke="#000000" stroke-width="0.75" font-family="'ArialRoundedMTBold'" font-size="24">.MP3</text>
</svg>
