<?xml version="1.0" encoding="utf-8"?>
<!-- Generator: Adobe Illustrator 14.0.0, SVG Export Plug-In . SVG Version: 6.00 Build 43363)  -->
<!DOCTYPE svg PUBLIC "-//W3C//DTD SVG 1.1//EN" "http://www.w3.org/Graphics/SVG/1.1/DTD/svg11.dtd">
<svg version="1.1" id="Your_Icon" xmlns="http://www.w3.org/2000/svg" xmlns:xlink="http://www.w3.org/1999/xlink" x="0px" y="0px"
	 width="100px" height="100px" viewBox="0 0 100 100" enable-background="new 0 0 100 100" xml:space="preserve">
<g>
	<line fill="none" x1="-2444.753" y1="1376.373" x2="-2444.753" y2="1363.687"/>
	<path d="M-2444.753,1378.596c-1.228,0-2.223-0.995-2.223-2.223v-12.688c0-1.228,0.995-2.222,2.223-2.222
		c1.227,0,2.222,0.994,2.222,2.222v12.688C-2442.531,1377.602-2443.526,1378.596-2444.753,1378.596z"/>
</g>
<g>
	<line fill="none" x1="-2431.286" y1="1376.373" x2="-2431.286" y2="1352.505"/>
	<path d="M-2431.286,1378.596c-1.227,0-2.222-0.995-2.222-2.223v-23.869c0-1.227,0.995-2.222,2.222-2.222
		c1.228,0,2.223,0.995,2.223,2.222v23.869C-2429.063,1377.602-2430.059,1378.596-2431.286,1378.596z"/>
</g>
<g>
	<line fill="none" x1="-2417.818" y1="1376.373" x2="-2417.818" y2="1340.463"/>
</g>
<g>
	<g>
		<g>
			<path d="M-2397.665,1365.312c-1.228,0-2.222-0.994-2.222-2.222v-6.993c0-1.228,0.995-2.223,2.222-2.223s2.222,0.995,2.222,2.223
				v6.993C-2395.443,1364.317-2396.438,1365.312-2397.665,1365.312z"/>
		</g>
		<g>
			<path d="M-2397.667,1371.444c-0.585,0-1.155-0.237-1.57-0.652c-0.415-0.415-0.651-0.984-0.651-1.57
				c0-0.585,0.237-1.156,0.651-1.57c0.822-0.829,2.318-0.829,3.141,0c0.415,0.408,0.652,0.985,0.652,1.57
				c0,0.586-0.237,1.156-0.652,1.57C-2396.511,1371.207-2397.082,1371.444-2397.667,1371.444z"/>
		</g>
	</g>
</g>
<g>
	<line fill="none" x1="-2404.351" y1="1352.505" x2="-2404.351" y2="1329.066"/>
</g>
<g>
	<line fill="none" x1="-2390.884" y1="1353.263" x2="-2390.884" y2="1317.67"/>
	<path d="M-2376.511,1375.437l-12.148-22.726v-35.044c0-1.223-1-2.223-2.222-2.223c-1.229,0-2.222,1-2.222,2.223v26.732l-2.6-4.866
		c-0.385-0.726-1.141-1.178-1.963-1.178c-0.822,0-1.57,0.452-1.956,1.178l-2.503,4.682v-15.148c0-1.229-1-2.222-2.222-2.222
		c-1.229,0-2.223,0.992-2.223,2.222v23.459l-9.022,16.875v-28.941c0-1.222-1-2.222-2.222-2.222c-1.229,0-2.222,1-2.222,2.222v35.911
		c0,1.229,0.993,2.223,2.222,2.223c0.074,0,0.148-0.008,0.223-0.015c0.229,0.081,0.481,0.126,0.733,0.126h38.393
		c0.777,0,1.503-0.408,1.903-1.082C-2376.163,1376.955-2376.141,1376.126-2376.511,1375.437z M-2413.155,1374.259l15.488-28.97
		l4.815,9.007c0.007,0.016,0.022,0.037,0.029,0.052l10.645,19.911H-2413.155z"/>
</g>
<g>
	<path d="M83.63,26.444v48.001c0,1.296-1.05,2.346-2.346,2.346H59.229c-1.297,0-2.347-1.05-2.347-2.346V26.444
		c0-1.296,1.05-2.346,2.347-2.346h22.055C82.58,24.099,83.63,25.148,83.63,26.444z M78.937,72.098V28.792h-17.36v43.306H78.937z"/>
</g>
<g>
	<path d="M43.711,26.444v48.001c0,1.296-1.05,2.346-2.347,2.346H19.311c-1.296,0-2.347-1.05-2.347-2.346V26.444
		c0-1.296,1.05-2.346,2.347-2.346h22.054C42.661,24.099,43.711,25.148,43.711,26.444z M39.018,72.098V28.792h-17.36v43.306H39.018z"
		/>
</g>
<g>
	<g>
		<path d="M51.861,77.475v1.721c0,0.864-0.7,1.564-1.564,1.564s-1.564-0.7-1.564-1.564v-1.721c0-0.863,0.7-1.564,1.564-1.564
			S51.861,76.611,51.861,77.475z"/>
	</g>
	<g>
		<path d="M51.861,29.815v3.131c0,0.863-0.7,1.564-1.564,1.564s-1.564-0.701-1.564-1.564v-3.131c0-0.863,0.7-1.564,1.564-1.564
			S51.861,28.952,51.861,29.815z M51.861,39.348v3.13c0,0.864-0.7,1.564-1.564,1.564s-1.564-0.7-1.564-1.564v-3.13
			c0-0.863,0.7-1.564,1.564-1.564S51.861,38.483,51.861,39.348z M51.861,48.88v3.13c0,0.863-0.7,1.564-1.564,1.564
			s-1.564-0.701-1.564-1.564v-3.13c0-0.863,0.7-1.564,1.564-1.564S51.861,48.017,51.861,48.88z M51.861,58.412v3.129
			c0,0.863-0.7,1.564-1.564,1.564s-1.564-0.701-1.564-1.564v-3.129c0-0.864,0.7-1.564,1.564-1.564S51.861,57.548,51.861,58.412z
			 M51.861,67.943v3.131c0,0.863-0.7,1.564-1.564,1.564s-1.564-0.701-1.564-1.564v-3.131c0-0.863,0.7-1.564,1.564-1.564
			S51.861,67.08,51.861,67.943z"/>
	</g>
	<g>
		<path d="M51.861,21.692v1.721c0,0.863-0.7,1.564-1.564,1.564s-1.564-0.701-1.564-1.564v-1.721c0-0.863,0.7-1.564,1.564-1.564
			S51.861,20.829,51.861,21.692z"/>
	</g>
</g>
</svg>
